<?xml version="1.0" standalone="no"?>
<!DOCTYPE svg PUBLIC "-//W3C//DTD SVG 20010904//EN"
 "http://www.w3.org/TR/2001/REC-SVG-20010904/DTD/svg10.dtd">
<svg version="1.0" xmlns="http://www.w3.org/2000/svg"
 width="512.000000pt" height="512.000000pt" viewBox="0 0 512.000000 512.000000"
 preserveAspectRatio="xMidYMid meet">

<g transform="translate(0.000000,512.000000) scale(0.100000,-0.100000)"
fill="#000000" stroke="none">
<path d="M1890 4633 c-249 -9 -488 -43 -626 -89 -318 -106 -582 -369 -687
-684 -77 -234 -97 -495 -97 -1300 0 -805 20 -1066 97 -1300 102 -306 368 -576
669 -678 238 -81 506 -102 1314 -102 927 0 1174 27 1435 154 253 124 460 362
549 630 32 97 60 250 78 422 18 182 18 1566 0 1748 -18 172 -46 325 -78 422
-89 268 -296 506 -549 630 -182 89 -367 126 -720 144 -166 9 -1179 11 -1385 3z
m1385 -323 c424 -24 591 -78 768 -249 241 -232 277 -428 277 -1501 0 -1073
-36 -1269 -277 -1501 -182 -176 -347 -227 -808 -250 -268 -14 -1403 -6 -1550
10 -317 35 -474 100 -626 258 -171 176 -225 345 -249 768 -13 233 -13 1197 0
1430 24 424 78 591 249 768 179 186 386 252 836 270 195 8 1223 5 1380 -3z"/>
<path d="M2495 3346 c-37 -17 -70 -52 -84 -89 -7 -17 -11 -127 -11 -282 l0
-254 -269 -3 c-254 -3 -271 -4 -297 -24 -53 -39 -69 -71 -69 -134 0 -63 16
-95 69 -134 26 -20 43 -21 296 -24 l269 -3 3 -269 c3 -253 4 -270 24 -296 39
-53 71 -69 134 -69 63 0 95 16 134 69 20 26 21 43 24 296 l3 269 269 3 c253 3
270 4 296 24 53 39 69 71 69 134 0 63 -16 95 -69 134 -26 20 -43 21 -296 24
l-269 3 -3 269 c-3 253 -4 270 -24 296 -11 15 -32 37 -46 47 -34 25 -113 32
-153 13z"/>
</g>
</svg>
