<svg width="20" height="20" viewBox="0 0 20 20" fill="none" xmlns="http://www.w3.org/2000/svg">
<path fill-rule="evenodd" clip-rule="evenodd" d="M16.1562 8.70253C16.1562 12.3254 13.0677 15.4051 9.0781 15.4051C5.08849 15.4051 2 12.3254 2 8.70253C2 5.07962 5.08849 2 9.0781 2C13.0677 2 16.1562 5.07962 16.1562 8.70253ZM14.2396 15.8625C12.7741 16.8352 10.9955 17.4051 9.0781 17.4051C4.0644 17.4051 0 13.5088 0 8.70253C0 3.89626 4.0644 0 9.0781 0C14.0918 0 18.1562 3.89626 18.1562 8.70253C18.1562 10.9642 17.2562 13.0244 15.7808 14.5719L19.7001 18.329C20.0988 18.7112 20.0988 19.3309 19.7001 19.7131C19.3014 20.0952 18.655 20.0952 18.2563 19.7131L14.2396 15.8625Z" fill="black"/>
</svg>
