<?xml version="1.0" standalone="no"?>
<!DOCTYPE svg PUBLIC "-//W3C//DTD SVG 20010904//EN"
 "http://www.w3.org/TR/2001/REC-SVG-20010904/DTD/svg10.dtd">
<svg version="1.0" xmlns="http://www.w3.org/2000/svg"
 width="512.000000pt" height="512.000000pt" viewBox="0 0 512.000000 512.000000"
 preserveAspectRatio="xMidYMid meet">

<g transform="translate(0.000000,512.000000) scale(0.100000,-0.100000)"
fill="#000000" stroke="none">
<path d="M1545 4161 c-57 -27 -1509 -1482 -1530 -1533 -20 -49 -19 -94 4 -143
13 -27 254 -274 762 -781 799 -797 773 -774 863 -760 107 17 174 121 146 227
-10 40 -68 101 -593 627 l-582 582 2178 0 c2345 0 2214 -3 2271 48 27 24 56
91 56 131 0 52 -37 118 -83 149 l-41 27 -2190 3 -2191 2 572 573 c314 314 579
588 589 607 38 76 11 179 -60 228 -47 32 -120 38 -171 13z"/>
</g>
</svg>
